<svg width="16" height="16" viewBox="0 0 16 16" fill="none" xmlns="http://www.w3.org/2000/svg">
<g id="icon_tab-minutes_filled">
<g id="Union">
<path d="M6.97693 5.43052L4.68137 10.3655C4.61933 10.4986 4.50693 10.6017 4.36893 10.652C4.23092 10.7023 4.07855 10.6958 3.94535 10.6338L1.60233 9.54142C1.46928 9.47935 1.36631 9.36702 1.31602 9.22908C1.26574 9.09115 1.27225 8.93888 1.33414 8.80575L3.62921 3.87319C3.73155 3.65327 3.87619 3.45567 4.0549 3.29167C4.2336 3.12767 4.44287 3.00049 4.67076 2.9174C4.89865 2.8343 5.14067 2.79692 5.38297 2.80738C5.62531 2.81786 5.86323 2.87596 6.08308 2.9784C6.52663 3.18523 6.86989 3.55968 7.03751 4.01947C7.2051 4.47926 7.18333 4.98678 6.97693 5.43052Z" fill="#3250EB"/>
<path d="M5.63245 9.92582L6.4403 12.1465C6.75353 13.0076 7.70556 13.4517 8.56663 13.1385L8.57456 13.1356C8.84583 13.037 9.07576 12.8748 9.25362 12.6722C9.35336 12.5635 9.43829 12.4379 9.50396 12.2972L11.7098 7.56662C12.0546 6.82733 11.7346 5.94844 10.9952 5.60366C10.256 5.25892 9.37709 5.57879 9.03236 6.31813L8.37376 7.73042L7.61889 5.65535L5.63245 9.92582Z" fill="#3250EB"/>
<path d="M12.6984 9.05468L13.221 7.93402C13.4795 7.37948 14.1386 7.13958 14.6932 7.39815C15.2476 7.65668 15.4875 8.31588 15.229 8.87042L13.5674 12.4337C13.5478 12.4809 13.5256 12.5269 13.5007 12.5714C13.4745 12.6194 13.4452 12.6648 13.4132 12.7074C13.2673 12.9056 13.0632 13.0645 12.8146 13.1549L12.7957 13.1618C12.1249 13.4058 11.3833 13.0598 11.1392 12.389L10.7034 11.1908L12.2606 7.85135L12.6984 9.05468Z" fill="#3250EB"/>
<path d="M3.69593 12.1247L1.70529 13.1713C1.65391 13.1983 1.59702 13.213 1.53903 13.2144C1.48103 13.2157 1.42351 13.2037 1.37092 13.1792C1.31833 13.1547 1.27211 13.1184 1.23584 13.0732C1.19957 13.0278 1.17423 12.9748 1.1618 12.9182L0.675932 10.7165C0.608491 10.4114 0.92021 10.1616 1.20343 10.2936L3.68011 11.4494C3.96254 11.5812 3.97203 11.9795 3.69593 12.1247Z" fill="#3250EB"/>
</g>
</g>
</svg>
