<svg width="16" height="16" viewBox="0 0 16 16" fill="none" xmlns="http://www.w3.org/2000/svg">
<g id="filled/interface/link">
<path id="Vector" d="M11.6667 8.33322L12.3333 7.66656C13.4379 6.56199 13.4379 4.77113 12.3333 3.66656C11.2288 2.56199 9.43792 2.56199 8.33335 3.66656L7.00002 4.99989C5.89545 6.10446 5.89545 7.89532 7.00001 8.99989M4.33335 7.66656L3.66669 8.33321C2.56211 9.43778 2.56211 11.2286 3.66668 12.3332C4.77125 13.4378 6.56211 13.4378 7.66668 12.3332L9.00001 10.9999C10.1046 9.89532 10.1046 8.10446 9.00001 6.99989" stroke="#3250EB" stroke-width="1.5"/>
<path id="Vector_2" fill-rule="evenodd" clip-rule="evenodd" d="M7.86199 3.19532C9.2269 1.8304 11.4399 1.8304 12.8048 3.19532C14.1697 4.56024 14.1697 6.77321 12.8048 8.13813L12.3738 8.56909C12.2437 8.69926 12.0326 8.69926 11.9024 8.56909L11.431 8.09768C11.3008 7.96751 11.3008 7.75645 11.431 7.62628L11.862 7.19532C12.7062 6.3511 12.7062 4.98235 11.862 4.13813C11.0178 3.29391 9.64901 3.29391 8.80479 4.13813L7.47146 5.47146C6.70709 6.23582 6.63479 7.43019 7.25456 8.2759C7.36338 8.42439 7.36593 8.63417 7.23576 8.76435L6.76435 9.23575C6.63418 9.36593 6.42161 9.36678 6.30427 9.22493C5.16835 7.85189 5.24315 5.81415 6.52865 4.52865L7.86199 3.19532ZM9.23576 6.76435C9.36593 6.63417 9.5785 6.63333 9.69584 6.77517C10.8318 8.14821 10.757 10.186 9.47146 11.4715L8.13812 12.8048C6.77321 14.1697 4.56024 14.1697 3.19532 12.8048C1.8304 11.4399 1.8304 9.22689 3.19532 7.86197L3.62628 7.43101C3.75646 7.30084 3.96751 7.30084 4.09769 7.43102L4.56909 7.90242C4.69926 8.0326 4.69926 8.24365 4.56909 8.37383L4.13813 8.80478C3.29391 9.649 3.29391 11.0178 4.13813 11.862C4.98235 12.7062 6.3511 12.7062 7.19532 11.862L8.52865 10.5286C9.29302 9.76428 9.36532 8.56991 8.74555 7.7242C8.63673 7.57571 8.63418 7.36593 8.76435 7.23575L9.23576 6.76435Z" fill="#3250EB"/>
</g>
</svg>
